<svg width="36" height="36" viewBox="0 0 36 36" fill="none" xmlns="http://www.w3.org/2000/svg">
<g clip-path="url(#clip0_58_2)">
<path d="M30.7995 9.16645C30.4523 8.26972 29.9216 7.45537 29.2415 6.77553C28.5614 6.0957 27.7469 5.56535 26.85 5.21845C25.8005 4.82448 24.6918 4.61146 23.571 4.58845C22.1265 4.52545 21.669 4.50745 18.006 4.50745C14.343 4.50745 13.8735 4.50745 12.441 4.58845C11.3211 4.61028 10.2131 4.82335 9.16501 5.21845C8.26791 5.56495 7.45315 6.09515 6.77301 6.77504C6.09286 7.45493 5.56235 8.26948 5.21551 9.16645C4.82146 10.2159 4.60893 11.3247 4.58701 12.4454C4.52251 13.8884 4.50301 14.3459 4.50301 18.0104C4.50301 21.6734 4.50301 22.1399 4.58701 23.5754C4.60951 24.6974 4.82101 25.8044 5.21551 26.8559C5.56332 27.7526 6.09435 28.5668 6.77466 29.2466C7.45497 29.9264 8.2696 30.4568 9.16651 30.8039C10.2127 31.2137 11.3211 31.442 12.444 31.4789C13.8885 31.5419 14.346 31.5614 18.009 31.5614C21.672 31.5614 22.1415 31.5614 23.574 31.4789C24.6947 31.4562 25.8033 31.2437 26.853 30.8505C27.7496 30.5027 28.5639 29.9719 29.244 29.2919C29.924 28.6119 30.4548 27.7976 30.8025 26.9009C31.197 25.8509 31.4085 24.7439 31.431 23.622C31.4955 22.1789 31.515 21.7214 31.515 18.0569C31.515 14.3924 31.515 13.9274 31.431 12.4919C31.4135 11.3554 31.1999 10.2303 30.7995 9.16645ZM28.9725 23.4644C28.9628 24.3289 28.805 25.1853 28.506 25.9964C28.2807 26.5798 27.9359 27.1094 27.4936 27.5515C27.0513 27.9935 26.5214 28.338 25.938 28.5629C25.1358 28.8606 24.2885 29.0184 23.433 29.0294C22.008 29.0954 21.606 29.1119 17.952 29.1119C14.295 29.1119 13.9215 29.1119 12.4695 29.0294C11.6144 29.019 10.7675 28.8612 9.96601 28.5629C9.38054 28.3394 8.84851 27.9955 8.40434 27.5534C7.96017 27.1113 7.61376 26.5809 7.38751 25.9964C7.09268 25.194 6.93497 24.3477 6.92101 23.4929C6.85651 22.0679 6.84151 21.6659 6.84151 18.0119C6.84151 14.3564 6.84151 13.9829 6.92101 12.5294C6.9307 11.6655 7.08849 10.8096 7.38751 9.99895C7.84501 8.81545 8.78251 7.88395 9.96601 7.43095C10.7679 7.13416 11.6145 6.97639 12.4695 6.96445C13.896 6.89995 14.2965 6.88195 17.952 6.88195C21.6075 6.88195 21.9825 6.88195 23.433 6.96445C24.2886 6.97474 25.136 7.13255 25.938 7.43095C26.5214 7.65636 27.0512 8.00125 27.4935 8.44349C27.9357 8.88573 28.2806 9.41555 28.506 9.99895C28.8008 10.8014 28.9585 11.6477 28.9725 12.5024C29.037 13.9289 29.0535 14.3294 29.0535 17.9849C29.0535 21.6389 29.0535 22.0319 28.989 23.466H28.9725V23.4644Z" fill="white" fill-opacity="0.78"/>
<g clip-path="url(#clip1_58_2)">
<path d="M18 11C16.1435 11 14.363 11.7375 13.0503 13.0503C11.7375 14.363 11 16.1435 11 18C11 19.8565 11.7375 21.637 13.0503 22.9497C14.363 24.2625 16.1435 25 18 25C19.8565 25 21.637 24.2625 22.9497 22.9497C24.2625 21.637 25 19.8565 25 18C25 16.1435 24.2625 14.363 22.9497 13.0503C21.637 11.7375 19.8565 11 18 11ZM18 22.5461C16.7939 22.5461 15.6372 22.0669 14.7844 21.2141C13.9315 20.3613 13.4524 19.2046 13.4524 17.9985C13.4524 16.7924 13.9315 15.6357 14.7844 14.7829C15.6372 13.93 16.7939 13.4509 18 13.4509C19.2061 13.4509 20.3628 13.93 21.2156 14.7829C22.0685 15.6357 22.5476 16.7924 22.5476 17.9985C22.5476 19.2046 22.0685 20.3613 21.2156 21.2141C20.3628 22.0669 19.2061 22.5461 18 22.5461Z" fill="white" fill-opacity="0.78"/>
<path d="M25.5 12C26.3284 12 27 11.3284 27 10.5C27 9.67157 26.3284 9 25.5 9C24.6716 9 24 9.67157 24 10.5C24 11.3284 24.6716 12 25.5 12Z" fill="white" fill-opacity="0.78"/>
</g>
</g>
<defs>
<clipPath id="clip0_58_2">
<rect width="36" height="36" fill="white"/>
</clipPath>
<clipPath id="clip1_58_2">
<rect width="28" height="25" fill="white" transform="translate(4 4)"/>
</clipPath>
</defs>
</svg>
