<svg width="181" height="535" viewBox="0 0 181 535" fill="none" xmlns="http://www.w3.org/2000/svg">
<path opacity="0.15" d="M0.995899 0.934326L180.442 104.564L180.357 534.81L0.910889 431.266L0.995899 0.934326Z" fill="url(#paint0_linear_20645_47)"/>
<path opacity="0.2" d="M24.3728 240.329L159.701 318.455V438.067L24.3728 359.941V240.329Z" fill="url(#paint1_linear_20645_47)"/>
<path opacity="0.15" d="M23.0122 148.6L160.38 227.916V241.433L23.0122 162.117V148.6Z" fill="white"/>
<path opacity="0.2" d="M0.995899 0.934326L180.442 104.564V162.202L0.910889 58.6576L0.995899 0.934326Z" fill="url(#paint2_linear_20645_47)"/>
<path opacity="0.2" d="M45.7935 56.0221C45.7935 64.7784 40.6933 68.859 34.4029 65.2034C28.1125 61.5479 23.0122 51.6015 23.0122 42.8453C23.0122 34.089 28.1125 30.0084 34.4029 33.6639C40.6933 37.3195 45.7935 47.3509 45.7935 56.0221Z" fill="white"/>
<path opacity="0.15" d="M23.0122 175.804L141.764 244.324V257.841L23.0122 189.321V175.804Z" fill="white"/>
<path opacity="0.15" d="M23.0122 202.668L123.828 260.816V274.333L23.0122 216.185V202.668Z" fill="white"/>
<defs>
<linearGradient id="paint0_linear_20645_47" x1="183.816" y1="106.519" x2="12.2076" y2="403.807" gradientUnits="userSpaceOnUse">
<stop stop-color="white"/>
<stop offset="1" stop-color="white" stop-opacity="0"/>
</linearGradient>
<linearGradient id="paint1_linear_20645_47" x1="117.95" y1="294.285" x2="70.2541" y2="376.909" gradientUnits="userSpaceOnUse">
<stop stop-color="white"/>
<stop offset="1" stop-color="white" stop-opacity="0"/>
</linearGradient>
<linearGradient id="paint2_linear_20645_47" x1="62.5214" y1="1.82823" x2="117.243" y2="156.739" gradientUnits="userSpaceOnUse">
<stop stop-color="#424C58"/>
<stop offset="1" stop-color="white" stop-opacity="0"/>
</linearGradient>
</defs>
</svg>
