<svg width="553" height="750" viewBox="0 0 553 750" fill="none" xmlns="http://www.w3.org/2000/svg">
<path opacity="0.15" d="M37.8689 215.444L354.768 398.39V411.907L37.8689 228.961V215.444Z" fill="white"/>
<path opacity="0.15" d="M0.637189 0.703125L553 319.499L552.915 750L0.552185 431.205L0.637189 0.703125Z" fill="url(#paint0_linear_20645_45)"/>
<path opacity="0.2" d="M0.636841 0.703125L552.235 319.159V377.477L0.636841 59.1065V0.703125Z" fill="url(#paint1_linear_20645_45)"/>
<path opacity="0.2" d="M60.7358 64.5473C60.7358 73.3035 55.6355 77.3841 49.3451 73.7286C43.0547 70.0731 37.9544 60.1266 37.9544 51.3704C37.9544 42.6142 43.0547 38.5336 49.3451 42.1891C55.6355 45.8446 60.7358 55.876 60.7358 64.5473Z" fill="white"/>
<path opacity="0.15" d="M37.8689 242.648L311.245 400.43V413.947L37.8689 256.165V242.648Z" fill="white"/>
<path opacity="0.15" d="M37.8689 269.596L270.528 403.915V417.432L37.8689 283.113V269.596Z" fill="white"/>
<defs>
<linearGradient id="paint0_linear_20645_45" x1="369.97" y1="213.856" x2="279.072" y2="371.362" gradientUnits="userSpaceOnUse">
<stop stop-color="white"/>
<stop offset="1" stop-color="white" stop-opacity="0"/>
</linearGradient>
<linearGradient id="paint1_linear_20645_45" x1="137.501" y1="-46.2861" x2="346.973" y2="308.519" gradientUnits="userSpaceOnUse">
<stop stop-color="#546F94"/>
<stop offset="1" stop-color="white" stop-opacity="0"/>
</linearGradient>
</defs>
</svg>
